<?xml version="1.0" standalone="no"?>
<!DOCTYPE svg PUBLIC "-//W3C//DTD SVG 20010904//EN"
 "http://www.w3.org/TR/2001/REC-SVG-20010904/DTD/svg10.dtd">
<svg id="ova-header-logo" height="100%" width="100%" version="1.0" xmlns="http://www.w3.org/2000/svg"
  viewBox="0 0 600.000000 187.000000"
 preserveAspectRatio="xMidYMid meet">
<metadata>
Created by potrace 1.16, written by Peter Selinger 2001-2019
</metadata>
<g transform="translate(0.000000,187.000000) scale(0.100000,-0.100000)"
fill="#000000" stroke="none">
<path d="M0 935 l0 -935 3000 0 3000 0 0 935 0 935 -3000 0 -3000 0 0 -935z
m1285 510 c33 -8 72 -18 88 -24 l27 -11 0 -111 c0 -102 -1 -111 -17 -104 -108
47 -307 62 -405 31 -65 -21 -120 -68 -144 -124 -26 -58 -31 -227 -9 -295 22
-71 79 -130 149 -154 87 -31 246 -22 404 23 22 6 22 6 22 -104 l0 -111 -42
-11 c-24 -6 -50 -13 -58 -16 -8 -3 -57 -9 -108 -13 -117 -10 -257 2 -339 30
-124 41 -236 154 -278 279 -23 68 -33 191 -24 282 21 216 122 355 305 418 108
38 297 44 429 15z m1973 -6 l92 -20 0 -114 0 -113 -57 18 c-133 41 -304 44
-394 6 -53 -22 -106 -86 -125 -152 -23 -80 -16 -233 14 -290 42 -81 116 -127
225 -140 60 -7 221 11 280 32 22 8 43 14 48 14 5 0 9 -49 9 -110 l0 -109 -42
-11 c-24 -6 -50 -13 -58 -16 -37 -13 -210 -20 -293 -13 -148 14 -241 54 -326
140 -56 56 -107 153 -121 230 -13 68 -14 219 -1 284 45 233 198 362 451 384
104 9 189 3 298 -20z m2029 16 c98 -9 163 -32 163 -56 0 -13 -5 -19 -13 -16
-114 44 -370 49 -459 9 -92 -41 -159 -130 -193 -257 -23 -81 -31 -287 -16
-366 46 -232 211 -334 499 -308 53 4 113 13 132 19 47 14 50 13 50 -9 0 -24
-58 -39 -189 -50 -112 -9 -216 -1 -286 23 -189 64 -286 280 -255 565 25 226
97 354 235 417 53 25 172 44 235 38 19 -2 63 -6 97 -9z m-3163 -25 c137 -35
210 -89 265 -199 51 -99 69 -334 37 -474 -28 -120 -96 -221 -180 -264 -104
-54 -124 -57 -433 -61 l-293 -4 0 511 0 511 263 0 c230 0 274 -3 341 -20z
m1496 -490 c0 -503 0 -510 -20 -510 -20 0 -20 7 -20 510 0 503 0 510 20 510
20 0 20 -7 20 -510z m570 27 l340 -479 0 481 c0 474 0 481 20 481 20 0 20 -7
20 -510 l0 -510 -24 0 c-21 0 -76 73 -363 476 l-338 476 -3 -476 -2 -476 -25
0 -25 0 0 511 0 510 30 -3 c26 -3 63 -50 370 -481z"/>
<path d="M1780 940 l0 -310 106 0 c129 0 185 13 229 54 46 44 65 115 65 242 0
159 -22 234 -85 286 -32 26 -95 38 -209 38 l-106 0 0 -310z"/>
</g>
</svg>
