<svg xmlns="http://www.w3.org/2000/svg" version="1.1"
     viewBox="200.00 140.00 2083.00 500.00" class="dark:text-white">
    <path fill="none" class="fill-current" d="
  M 475.99 169.66
  C 481.28 169.81 486.28 169.92 491.60 170.60
  Q 494.23 170.94 496.89 171.06
  Q 499.39 171.18 502.09 171.51
  Q 543.30 176.56 582.89 190.63
  A 0.67 0.67 0.0 0 1 583.33 191.26
  L 583.33 282.92
  Q 583.33 283.56 582.73 283.34
  Q 567.34 277.55 561.90 275.76
  Q 536.16 267.31 509.01 263.23
  C 507.57 263.02 506.18 263.12 504.78 262.71
  Q 502.59 262.08 500.05 262.02
  Q 497.87 261.96 495.45 261.56
  Q 490.40 260.71 485.25 261.04
  Q 484.75 261.07 484.31 260.82
  Q 484.03 260.67 483.75 260.51
  Q 483.45 260.35 483.10 260.33
  Q 463.86 259.62 445.27 260.32
  C 444.63 260.34 444.44 260.48 443.92 260.80
  Q 443.50 261.05 443.00 261.02
  Q 439.95 260.87 434.16 261.68
  Q 416.37 264.15 403.69 268.49
  Q 361.29 283.03 345.50 324.51
  Q 339.56 340.14 336.74 362.02
  Q 335.89 368.57 335.99 372.66
  C 336.01 373.76 335.40 374.44 335.36 375.53
  Q 334.70 391.17 335.34 406.11
  Q 335.36 406.49 335.56 406.81
  L 335.83 407.22
  Q 336.04 407.54 336.02 407.92
  Q 335.84 412.52 336.37 417.11
  Q 336.41 417.50 336.64 417.82
  Q 336.77 417.99 336.79 418.20
  C 340.16 447.62 351.47 475.94 376.02 493.80
  Q 390.20 504.12 407.26 509.45
  Q 417.28 512.59 427.84 514.35
  Q 434.98 515.54 442.71 516.32
  Q 450.23 517.07 457.04 517.03
  C 467.08 516.96 477.29 517.24 487.30 516.53
  Q 535.63 513.13 580.16 495.64
  Q 581.94 494.95 583.52 494.62
  Q 584.00 494.51 584.00 495.01
  L 584.00 587.21
  A 0.77 0.77 0.0 0 1 583.48 587.94
  Q 553.08 597.92 520.68 603.02
  Q 515.12 603.89 509.17 604.42
  Q 508.66 604.47 508.19 604.72
  Q 507.75 604.96 507.26 604.96
  Q 503.44 605.02 500.00 605.35
  Q 499.52 605.40 499.11 605.68
  Q 498.70 605.96 498.20 605.97
  Q 493.48 606.01 488.78 606.31
  Q 488.77 606.31 486.77 606.69
  Q 485.46 606.94 484.10 606.97
  Q 452.77 607.75 429.80 606.85
  Q 429.18 606.82 428.57 606.56
  Q 428.26 606.43 427.91 606.40
  Q 422.69 606.00 417.75 605.98
  A 1.49 1.48 -25.8 0 1 416.84 605.67
  Q 416.70 605.56 416.54 605.47
  Q 416.38 605.38 416.20 605.37
  Q 412.47 605.00 408.76 604.96
  Q 408.24 604.96 407.83 604.64
  L 407.59 604.45
  Q 407.42 604.31 407.20 604.30
  Q 401.33 603.91 394.69 602.67
  Q 376.91 599.36 362.07 594.77
  C 316.07 580.54 277.30 551.15 253.94 509.02
  Q 236.57 477.68 230.75 440.05
  Q 230.55 438.71 230.15 437.58
  Q 230.01 437.21 230.03 436.81
  Q 230.16 433.89 229.47 431.03
  Q 228.92 428.74 228.93 426.47
  Q 228.93 424.20 228.44 421.99
  Q 228.00 419.98 227.98 418.01
  Q 227.93 413.02 227.61 407.95
  C 227.56 407.17 227.07 406.62 227.06 406.00
  Q 226.91 391.12 227.09 375.75
  C 227.10 375.26 227.58 374.84 227.62 374.17
  Q 227.97 367.52 228.01 360.79
  Q 228.01 360.28 228.35 359.90
  Q 228.61 359.61 228.63 359.25
  Q 228.84 355.72 229.05 352.42
  Q 229.19 350.30 229.71 348.20
  C 230.18 346.26 229.76 344.36 230.39 342.35
  Q 231.18 339.82 230.97 337.18
  Q 230.93 336.72 231.15 336.33
  Q 231.85 335.06 231.94 333.49
  Q 232.03 332.06 232.33 330.58
  Q 233.18 326.41 234.02 322.51
  C 240.00 294.83 251.37 267.81 268.11 245.33
  Q 295.68 208.29 339.44 189.55
  Q 360.39 180.59 382.30 176.03
  Q 396.94 172.99 403.30 172.27
  Q 406.65 171.89 409.69 171.46
  Q 412.06 171.12 415.34 170.92
  Q 417.25 170.81 419.13 170.51
  Q 421.41 170.15 422.90 170.09
  Q 429.32 169.83 435.75 169.65
  C 436.62 169.63 437.02 169.00 438.12 169.00
  Q 456.38 168.99 474.08 169.02
  Q 474.50 169.02 474.84 169.21
  Q 475.01 169.31 475.18 169.41
  A 1.56 1.55 62.0 0 0 475.99 169.66
  Z"
    />
    <path fill="none" class="fill-current" d="
  M 1288.81 169.65
  C 1294.07 169.82 1299.38 169.80 1304.58 170.63
  C 1307.28 171.06 1310.01 170.91 1312.75 171.23
  Q 1355.33 176.22 1395.88 190.59
  A 0.68 0.68 0.0 0 1 1396.33 191.23
  L 1396.33 283.00
  Q 1396.33 283.66 1395.72 283.42
  Q 1382.67 278.36 1375.04 275.84
  Q 1345.07 265.91 1313.60 262.12
  C 1312.14 261.95 1310.26 262.28 1309.03 261.70
  Q 1308.24 261.32 1307.35 261.26
  Q 1302.40 260.93 1298.04 260.98
  A 1.67 1.65 60.7 0 1 1297.10 260.71
  Q 1296.89 260.58 1296.67 260.46
  Q 1296.47 260.34 1296.21 260.33
  Q 1277.21 259.61 1258.20 260.31
  C 1257.68 260.33 1257.45 260.46 1257.03 260.75
  Q 1256.69 260.98 1256.28 260.97
  Q 1251.90 260.90 1248.21 261.46
  Q 1245.52 261.87 1242.92 262.24
  Q 1231.93 263.82 1220.80 267.15
  Q 1203.72 272.26 1189.85 282.23
  C 1168.76 297.39 1157.01 321.53 1152.07 347.28
  Q 1150.35 356.25 1149.20 366.48
  Q 1148.85 369.52 1149.04 372.69
  C 1149.10 373.68 1148.40 374.17 1148.36 375.13
  Q 1147.64 391.38 1148.35 407.03
  Q 1148.37 407.39 1148.55 407.69
  Q 1148.62 407.80 1148.71 407.90
  Q 1149.04 408.30 1149.02 408.83
  Q 1148.80 413.22 1149.45 416.73
  Q 1149.92 419.27 1150.09 421.84
  Q 1150.20 423.43 1150.62 425.11
  Q 1151.01 426.68 1151.30 428.42
  Q 1153.07 439.04 1157.18 450.34
  Q 1168.84 482.37 1196.70 498.91
  Q 1205.73 504.28 1214.97 507.59
  Q 1234.63 514.63 1253.72 515.98
  C 1255.72 516.12 1257.38 516.75 1259.37 516.80
  Q 1278.62 517.30 1299.59 516.77
  Q 1301.32 516.72 1302.99 516.23
  C 1304.40 515.81 1306.06 516.05 1307.59 515.91
  Q 1352.76 511.80 1396.02 494.60
  Q 1396.99 494.21 1396.99 495.25
  L 1397.00 587.25
  A 0.68 0.67 81.1 0 1 1396.54 587.89
  Q 1366.78 597.65 1335.53 602.71
  C 1333.39 603.06 1331.13 603.10 1329.12 603.66
  C 1326.90 604.28 1324.61 603.89 1322.37 604.46
  Q 1320.21 605.01 1318.12 605.05
  Q 1315.59 605.10 1313.12 605.32
  Q 1312.57 605.37 1312.11 605.69
  A 1.56 1.53 -61.8 0 1 1311.18 605.98
  Q 1306.49 605.96 1301.76 606.35
  Q 1300.80 606.43 1299.81 606.68
  Q 1298.68 606.96 1297.48 606.99
  Q 1266.78 607.73 1242.89 606.87
  Q 1242.22 606.85 1241.57 606.55
  Q 1241.27 606.42 1240.94 606.39
  Q 1235.70 606.02 1230.74 605.98
  A 1.41 1.38 65.2 0 1 1229.87 605.65
  Q 1229.59 605.41 1229.24 605.37
  Q 1226.46 605.06 1223.78 605.01
  Q 1221.74 604.96 1219.96 604.43
  Q 1218.58 604.02 1217.08 604.02
  Q 1215.79 604.02 1214.48 603.79
  Q 1209.31 602.88 1204.24 601.98
  Q 1191.83 599.78 1178.32 595.78
  Q 1156.19 589.22 1136.72 578.45
  C 1100.42 558.36 1073.07 527.39 1057.26 488.97
  Q 1050.43 472.38 1046.26 453.70
  Q 1045.99 452.49 1045.86 451.27
  C 1045.70 449.80 1044.92 448.75 1044.93 447.30
  Q 1044.95 445.40 1044.18 443.76
  Q 1043.95 443.28 1043.98 442.76
  Q 1044.11 440.56 1043.45 438.54
  C 1042.73 436.35 1043.02 434.03 1042.68 431.76
  Q 1042.62 431.38 1042.36 431.10
  Q 1042.00 430.73 1042.01 430.22
  Q 1042.02 426.48 1041.67 422.89
  Q 1041.62 422.35 1041.29 421.91
  A 1.45 1.39 -64.1 0 1 1041.02 421.07
  Q 1040.99 415.07 1040.61 408.78
  Q 1040.59 408.42 1040.41 408.12
  Q 1040.32 407.97 1040.22 407.82
  Q 1040.01 407.51 1040.01 407.13
  Q 1039.99 390.97 1040.00 376.03
  C 1040.00 375.13 1040.51 374.72 1040.56 374.00
  Q 1040.98 366.84 1041.03 359.98
  Q 1041.03 359.48 1041.30 359.06
  Q 1041.43 358.87 1041.53 358.67
  Q 1041.64 358.47 1041.66 358.25
  Q 1042.05 354.52 1042.00 350.67
  Q 1042.00 350.23 1042.28 349.90
  Q 1042.32 349.85 1042.37 349.80
  Q 1042.47 349.70 1042.49 349.55
  Q 1045.11 324.99 1052.61 301.46
  Q 1060.60 276.38 1074.61 254.65
  Q 1097.20 219.63 1133.42 199.02
  Q 1156.17 186.08 1182.29 179.17
  Q 1201.21 174.17 1218.53 172.01
  Q 1221.22 171.67 1223.06 171.40
  Q 1225.38 171.05 1227.52 170.95
  Q 1229.84 170.85 1231.86 170.54
  Q 1234.55 170.13 1236.18 170.07
  Q 1242.52 169.82 1248.75 169.63
  Q 1249.38 169.61 1249.90 169.27
  Q 1250.32 169.01 1250.82 169.01
  Q 1268.95 168.99 1287.08 169.01
  Q 1287.50 169.01 1287.85 169.19
  Q 1287.99 169.27 1288.11 169.37
  Q 1288.41 169.63 1288.81 169.65
  Z"
    />
    <path fill="none" class="fill-current" d="
  M 2126.01 606.28
  Q 2124.03 606.31 2122.10 606.10
  C 2120.54 605.92 2118.59 606.28 2117.13 605.76
  Q 2116.09 605.38 2115.03 605.30
  Q 2112.31 605.09 2109.73 604.70
  Q 2092.91 602.18 2077.69 597.35
  Q 2028.77 581.83 1999.99 539.69
  Q 1988.00 522.15 1980.17 501.43
  Q 1971.03 477.30 1967.19 450.03
  Q 1966.76 446.98 1966.72 443.99
  Q 1966.71 443.49 1966.35 443.10
  A 1.28 1.27 24.0 0 1 1966.00 442.20
  Q 1966.01 438.03 1965.59 433.82
  Q 1965.56 433.50 1965.40 433.23
  Q 1965.31 433.09 1965.23 432.95
  Q 1965.06 432.68 1965.06 432.37
  Q 1964.93 425.24 1964.56 418.12
  Q 1964.54 417.60 1964.30 417.16
  A 2.40 2.38 -59.7 0 1 1964.00 416.00
  L 1964.00 385.02
  A 1.71 1.65 -29.5 0 1 1964.27 384.11
  Q 1964.38 383.93 1964.50 383.75
  Q 1964.60 383.58 1964.61 383.38
  Q 1964.94 375.00 1965.06 366.62
  Q 1965.06 366.13 1965.33 365.72
  Q 1965.58 365.32 1965.62 364.82
  Q 1966.05 359.32 1966.01 354.68
  A 1.13 1.13 0.0 0 1 1966.34 353.86
  Q 1966.61 353.59 1966.65 353.21
  Q 1967.03 349.48 1967.02 345.84
  Q 1967.01 345.47 1967.22 345.17
  Q 1967.29 345.06 1967.37 344.96
  Q 1967.54 344.72 1967.57 344.43
  Q 1971.27 310.70 1982.53 279.25
  Q 1993.68 248.10 2011.74 224.86
  C 2031.06 200.00 2058.94 183.82 2089.52 176.07
  Q 2099.28 173.60 2109.25 171.96
  Q 2122.34 169.80 2134.82 169.67
  Q 2135.32 169.67 2135.74 169.38
  L 2136.14 169.12
  Q 2136.31 169.00 2136.52 169.00
  L 2169.19 169.00
  Q 2169.64 169.00 2169.99 169.27
  L 2170.19 169.42
  Q 2170.59 169.72 2171.08 169.72
  Q 2180.78 169.66 2190.11 170.75
  C 2192.43 171.02 2194.78 171.03 2197.11 171.26
  Q 2234.97 175.08 2269.51 187.10
  Q 2270.11 187.31 2270.11 187.95
  L 2270.11 203.51
  Q 2270.11 204.42 2269.25 204.12
  Q 2229.39 190.44 2187.78 186.69
  Q 2178.76 185.88 2173.80 186.00
  Q 2173.29 186.01 2172.92 185.72
  Q 2172.50 185.40 2171.98 185.39
  Q 2156.45 184.89 2141.02 185.28
  Q 2139.84 185.31 2138.77 185.62
  Q 2137.46 186.00 2136.11 185.98
  Q 2130.94 185.93 2126.02 186.34
  C 2125.57 186.38 2125.40 186.49 2125.03 186.75
  A 1.18 1.13 27.1 0 1 2124.33 186.96
  Q 2121.48 186.88 2118.60 187.33
  Q 2115.73 187.77 2112.79 188.24
  Q 2094.74 191.11 2078.58 197.15
  Q 2038.75 212.05 2017.14 246.76
  Q 2004.78 266.60 1997.04 289.98
  Q 1987.26 319.52 1983.72 357.65
  Q 1983.70 357.82 1983.63 357.97
  Q 1983.42 358.38 1983.38 358.82
  Q 1982.82 364.89 1983.05 369.29
  Q 1983.11 370.42 1982.54 371.34
  Q 1982.28 371.76 1982.27 372.25
  Q 1981.68 396.28 1982.16 423.14
  Q 1982.19 425.38 1982.30 427.63
  Q 1982.32 428.15 1982.56 428.62
  L 1982.87 429.22
  Q 1982.98 429.44 1982.98 429.69
  Q 1982.94 434.56 1983.34 439.26
  Q 1983.37 439.62 1983.61 439.88
  Q 1984.06 440.35 1984.02 440.99
  Q 1983.79 444.44 1984.49 447.26
  Q 1984.93 449.04 1985.18 450.96
  Q 1988.28 474.45 1996.78 497.14
  Q 2003.46 514.96 2013.88 529.98
  C 2030.65 554.16 2054.70 571.31 2082.44 580.54
  Q 2106.16 588.43 2130.23 590.03
  Q 2131.33 590.11 2132.33 590.55
  Q 2132.77 590.75 2133.24 590.76
  Q 2156.66 591.35 2180.51 590.70
  Q 2181.01 590.69 2181.45 590.45
  Q 2182.44 589.91 2183.53 589.96
  Q 2187.94 590.18 2192.53 589.53
  Q 2196.01 589.04 2199.52 588.72
  Q 2234.64 585.50 2269.68 574.97
  A 0.32 0.32 0.0 0 1 2270.10 575.28
  L 2270.11 591.24
  Q 2270.11 591.76 2269.61 591.90
  Q 2238.99 600.61 2206.31 604.61
  Q 2206.02 604.64 2205.76 604.80
  Q 2205.50 604.95 2205.19 604.96
  Q 2201.80 605.01 2198.13 605.33
  Q 2197.47 605.39 2196.90 605.72
  Q 2196.47 605.96 2195.97 605.96
  Q 2191.33 605.97 2186.30 606.35
  Q 2186.28 606.35 2184.58 606.70
  Q 2183.26 606.97 2181.94 606.99
  Q 2144.61 607.75 2127.37 606.84
  Q 2127.03 606.82 2126.81 606.57
  Q 2126.70 606.45 2126.55 606.38
  A 1.31 1.14 -30.5 0 0 2126.01 606.28
  Z"
    />
    <path fill="none" class="fill-current" d="
  M 1016.40 347.10
  Q 1016.44 347.49 1016.65 347.83
  Q 1016.90 348.24 1016.92 348.72
  L 1017.32 359.26
  A 0.71 0.70 -70.9 0 0 1017.56 359.77
  Q 1017.76 359.95 1017.84 360.20
  Q 1017.86 360.26 1017.86 360.33
  Q 1018.88 390.55 1017.81 419.24
  Q 1017.79 419.69 1017.59 420.19
  Q 1017.45 420.52 1017.44 420.85
  Q 1015.81 450.72 1007.76 479.26
  Q 1002.89 496.52 994.65 513.13
  C 975.84 551.09 943.62 576.13 903.54 589.18
  Q 890.05 593.57 876.47 595.96
  Q 874.78 596.26 873.60 596.57
  C 871.45 597.13 869.34 597.01 867.26 597.61
  C 864.80 598.31 862.30 597.87 859.84 598.56
  C 857.03 599.35 853.65 599.07 850.70 599.37
  Q 850.39 599.40 850.13 599.59
  Q 850.01 599.68 849.90 599.77
  Q 849.66 599.97 849.34 599.97
  Q 842.52 600.01 835.60 600.39
  C 834.32 600.46 833.60 601.00 832.19 601.00
  Q 731.64 601.00 635.72 601.00
  A 0.72 0.72 0.0 0 1 635.00 600.28
  L 635.00 176.50
  Q 635.00 175.91 635.59 175.91
  Q 733.46 175.86 841.73 175.95
  C 842.68 175.95 843.07 176.59 844.11 176.64
  Q 847.70 176.79 851.44 177.07
  Q 870.56 178.51 891.02 183.64
  C 915.97 189.88 938.85 200.63 958.92 217.16
  C 983.72 237.61 999.19 267.08 1007.65 297.80
  Q 1013.27 318.20 1015.51 338.47
  Q 1015.54 338.70 1015.67 338.89
  Q 1015.73 338.99 1015.80 339.08
  Q 1015.98 339.31 1015.98 339.61
  Q 1015.99 343.59 1016.40 347.10
  Z
  M 865.26 269.09
  Q 859.11 265.96 852.63 263.88
  Q 843.52 260.94 833.74 259.52
  Q 825.53 258.33 816.93 257.74
  Q 809.71 257.25 800.28 257.28
  Q 770.42 257.38 741.80 257.30
  A 0.47 0.47 0.0 0 0 741.33 257.77
  L 741.33 518.54
  A 0.43 0.42 90.0 0 0 741.75 518.97
  Q 778.85 519.12 813.57 518.89
  Q 826.14 518.81 843.86 515.28
  Q 847.12 514.64 850.84 513.52
  Q 854.60 512.39 857.84 511.19
  Q 876.96 504.18 888.92 487.44
  Q 898.34 474.25 903.02 457.42
  Q 907.78 440.24 909.16 421.25
  Q 909.19 420.91 909.23 420.56
  Q 910.13 412.03 910.17 403.50
  Q 910.17 403.14 910.29 402.79
  Q 910.43 402.40 910.43 402.12
  Q 910.41 390.41 910.43 378.70
  Q 910.43 378.54 910.37 378.39
  C 910.23 378.06 910.06 377.81 910.06 377.44
  Q 909.97 363.10 908.00 346.82
  Q 906.26 332.43 902.43 318.85
  C 896.54 298.01 884.94 279.12 865.26 269.09
  Z"
    />
    <rect fill="none" class="fill-current" x="1490.67" y="175.90" width="18.32" height="425.10" rx="0.36"/>
    <path fill="none" class="fill-current" d="
  M 1885.64 575.05
  Q 1885.92 573.58 1885.92 572.24
  Q 1886.09 374.78 1885.98 176.55
  Q 1885.98 175.89 1886.64 175.90
  L 1903.74 175.90
  Q 1904.33 175.90 1904.33 176.49
  L 1904.33 600.64
  A 0.37 0.36 -90.0 0 1 1903.97 601.01
  L 1885.42 601.02
  A 2.58 2.57 -17.7 0 1 1883.32 599.94
  L 1601.80 202.94
  Q 1600.00 200.40 1600.00 203.51
  L 1600.00 600.50
  Q 1600.00 601.00 1599.50 601.00
  L 1582.26 601.00
  A 0.37 0.37 0.0 0 1 1581.89 600.63
  L 1581.89 176.26
  A 0.36 0.36 0.0 0 1 1582.25 175.90
  L 1601.56 175.89
  Q 1602.24 175.89 1602.63 176.44
  L 1885.35 575.11
  A 0.16 0.16 0.0 0 0 1885.64 575.05
  Z"
    />
</svg>
